<?xml version="1.0" encoding="iso-8859-1"?>
<!-- Generator: Adobe Illustrator 19.0.0, SVG Export Plug-In . SVG Version: 6.00 Build 0)  -->
<svg fill="#ffffff" version="1.1" id="Capa_1" xmlns="http://www.w3.org/2000/svg" xmlns:xlink="http://www.w3.org/1999/xlink" x="0px" y="0px"
	 viewBox="0 0 480 480" style="enable-background:new 0 0 480 480;" xml:space="preserve">
<g>
	<g>
		<rect x="80" y="100" width="16" height="16"/>
	</g>
</g>
<g>
	<g>
		<rect x="160" y="100" width="16" height="16"/>
	</g>
</g>
<g>
	<g>
		<rect x="232" y="100" width="16" height="16"/>
	</g>
</g>
<g>
	<g>
		<rect x="304" y="100" width="16" height="16"/>
	</g>
</g>
<g>
	<g>
		<rect x="376" y="100" width="16" height="16"/>
	</g>
</g>
<g>
	<g>
		<rect x="120" y="140" width="16" height="16"/>
	</g>
</g>
<g>
	<g>
		<rect x="200" y="140" width="16" height="16"/>
	</g>
</g>
<g>
	<g>
		<rect x="272" y="140" width="16" height="16"/>
	</g>
</g>
<g>
	<g>
		<rect x="344" y="140" width="16" height="16"/>
	</g>
</g>
<g>
	<g>
		<path d="M472,324h-16V108c-0.026-26.499-21.501-47.974-48-48H72c-26.499,0.026-47.974,21.501-48,48v216H8c-4.418,0-8,3.582-8,8v48
			c0,4.418,3.582,8,8,8h16v24c0,4.418,3.582,8,8,8h32c3.032,0.001,5.805-1.712,7.16-4.424L84.944,388h310.112l13.784,27.576
			c1.355,2.712,4.128,4.425,7.16,4.424h32c4.418,0,8-3.582,8-8v-24h16c4.418,0,8-3.582,8-8v-48C480,327.582,476.418,324,472,324z
			 M40,108c0-17.673,14.327-32,32-32h336c17.673,0,32,14.327,32,32v216h-20.448c2.879-4.843,4.415-10.366,4.448-16v-32
			c0-17.673-14.327-32-32-32v-56c0-4.418-3.582-8-8-8H272c-4.418,0-8,3.582-8,8v56h-48v-56c0-4.418-3.582-8-8-8H96
			c-4.418,0-8,3.582-8,8v56c-17.673,0-32,14.327-32,32v32c0.033,5.634,1.569,11.157,4.448,16H40V108z M104,244v-48h96v48H104z
			 M180.688,260L152,288.688L123.312,260H180.688z M146.344,305.656c3.124,3.123,8.188,3.123,11.312,0L203.312,260H392
			c8.837,0,16,7.163,16,16v32c0,8.837-7.163,16-16,16H88c-8.837,0-16-7.163-16-16v-32c0-8.837,7.163-16,16-16h12.688
			L146.344,305.656z M280,244v-48h96v48H280z M59.056,404H40v-16h27.056L59.056,404z M440,404h-19.056l-8-16H440V404z M464,372H16
			v-32h448V372z"/>
	</g>
</g>
<g>
</g>
<g>
</g>
<g>
</g>
<g>
</g>
<g>
</g>
<g>
</g>
<g>
</g>
<g>
</g>
<g>
</g>
<g>
</g>
<g>
</g>
<g>
</g>
<g>
</g>
<g>
</g>
<g>
</g>
</svg>
